<svg xmlns="http://www.w3.org/2000/svg" xmlns:xlink="http://www.w3.org/1999/xlink" width="500" zoomAndPan="magnify" viewBox="0 0 375 374.999991" height="500" preserveAspectRatio="xMidYMid meet" version="1.0"><defs><clipPath id="8d9d13ebe2"><path d="M 32 149 L 366.746094 149 L 366.746094 182 L 32 182 Z M 32 149 " clip-rule="nonzero"/></clipPath><clipPath id="22a9ed7dfa"><path d="M 32 156 L 366.746094 156 L 366.746094 198 L 32 198 Z M 32 156 " clip-rule="nonzero"/></clipPath><clipPath id="1a6a07c83a"><path d="M 32 160 L 366.746094 160 L 366.746094 215 L 32 215 Z M 32 160 " clip-rule="nonzero"/></clipPath><clipPath id="6f97a70331"><path d="M 32 163 L 366.746094 163 L 366.746094 233 L 32 233 Z M 32 163 " clip-rule="nonzero"/></clipPath><clipPath id="4460253de9"><path d="M 11 127.164062 L 48 127.164062 L 48 233 L 11 233 Z M 11 127.164062 " clip-rule="nonzero"/></clipPath><clipPath id="0d88c5bfe3"><path d="M 80 196 L 120 196 L 120 256.914062 L 80 256.914062 Z M 80 196 " clip-rule="nonzero"/></clipPath></defs><g clip-path="url(#8d9d13ebe2)"><path fill="#937eb9" d="M 366.503906 158.859375 C 366.378906 158.859375 309.570312 147.9375 302.878906 155.703125 C 299.59375 159.34375 302.878906 162.375 305.921875 165.289062 C 307.136719 166.378906 308.355469 167.472656 309.082031 168.5625 C 310.421875 170.503906 310.542969 172.445312 307.625 174.386719 C 303.367188 177.175781 286.457031 172.808594 265.65625 167.351562 C 242.054688 161.164062 213.347656 153.761719 193.03125 154.125 C 175.390625 154.371094 175.636719 159.707031 175.757812 165.410156 C 176 172.203125 176.363281 179.484375 151.546875 181.058594 C 124.421875 182.636719 105.808594 175.113281 84.882812 166.621094 C 69.800781 160.558594 53.621094 154.003906 32.332031 149.878906 L 32.453125 149.03125 C 53.863281 153.15625 70.164062 159.707031 85.128906 165.773438 C 106.050781 174.265625 124.542969 181.789062 151.425781 180.210938 C 175.390625 178.753906 175.148438 171.839844 174.90625 165.410156 C 174.660156 159.222656 174.539062 153.519531 193.03125 153.15625 C 213.46875 152.792969 242.175781 160.3125 265.898438 166.5 C 286.457031 171.960938 303.246094 176.328125 307.136719 173.660156 C 309.449219 172.082031 309.449219 170.625 308.355469 169.050781 C 307.746094 168.078125 306.527344 166.988281 305.3125 165.894531 C 302.027344 162.742188 298.378906 159.464844 302.148438 155.097656 C 309.328125 146.96875 366.503906 158.007812 366.625 158.007812 Z M 366.503906 158.859375 " fill-opacity="1" fill-rule="nonzero"/></g><g clip-path="url(#22a9ed7dfa)"><path fill="#937eb9" d="M 366.625 160.558594 C 366.378906 160.558594 309.691406 153.277344 302.878906 161.527344 C 299.71875 165.410156 303 168.320312 306.042969 170.867188 C 307.136719 171.960938 308.355469 172.929688 309.082031 173.902344 C 310.542969 175.84375 310.664062 177.785156 307.625 179.96875 C 303.488281 183.121094 286.578125 179.726562 265.777344 175.722656 C 242.054688 171.113281 213.46875 165.410156 193.152344 167.109375 C 175.511719 168.683594 175.636719 173.902344 175.878906 179.605469 C 176.121094 186.398438 176.363281 193.796875 151.546875 196.832031 C 124.542969 200.226562 105.808594 193.917969 84.882812 186.761719 C 69.921875 181.667969 53.742188 176.207031 32.332031 173.539062 L 32.453125 172.6875 C 53.863281 175.359375 70.164062 180.816406 85.128906 185.914062 C 106.050781 193.070312 124.542969 199.378906 151.546875 195.980469 C 175.511719 192.949219 175.269531 186.035156 175.027344 179.726562 C 174.785156 173.539062 174.539062 167.835938 193.03125 166.257812 C 213.46875 164.558594 242.175781 170.261719 265.898438 174.871094 C 286.457031 178.875 303.246094 182.152344 307.136719 179.238281 C 309.570312 177.421875 309.449219 175.964844 308.355469 174.507812 C 307.625 173.539062 306.527344 172.566406 305.433594 171.597656 C 302.148438 168.683594 298.5 165.53125 302.273438 161.042969 C 309.328125 152.429688 366.503906 159.707031 366.746094 159.707031 Z M 366.625 160.558594 " fill-opacity="1" fill-rule="nonzero"/></g><g clip-path="url(#1a6a07c83a)"><path fill="#937eb9" d="M 366.625 162.253906 C 366.503906 162.253906 309.691406 158.738281 303 167.472656 C 299.71875 171.597656 303 174.144531 306.042969 176.570312 C 307.136719 177.542969 308.230469 178.390625 309.082031 179.363281 C 310.542969 181.179688 310.785156 183.121094 307.746094 185.546875 C 303.609375 188.945312 286.578125 186.761719 265.777344 183.972656 C 242.175781 180.9375 213.46875 177.175781 193.273438 180.210938 C 175.511719 182.878906 175.757812 188.21875 175.878906 193.917969 C 176.121094 200.59375 176.363281 207.992188 151.667969 212.601562 C 124.542969 217.820312 105.929688 212.722656 85.007812 207.023438 C 70.042969 202.898438 53.742188 198.410156 32.453125 197.195312 L 32.453125 196.347656 C 53.984375 197.558594 70.164062 202.046875 85.25 206.171875 C 106.050781 211.875 124.542969 216.96875 151.546875 211.753906 C 175.511719 207.265625 175.269531 200.351562 175.027344 193.917969 C 174.785156 187.855469 174.660156 182.152344 193.152344 179.363281 C 213.46875 176.328125 242.175781 180.089844 265.898438 183.121094 C 286.578125 185.792969 303.246094 187.976562 307.136719 184.820312 C 309.691406 182.878906 309.570312 181.300781 308.355469 179.847656 C 307.625 178.996094 306.652344 178.148438 305.554688 177.300781 C 302.148438 174.628906 298.5 171.71875 302.273438 166.867188 C 309.328125 157.886719 366.503906 161.40625 366.746094 161.40625 Z M 366.625 162.253906 " fill-opacity="1" fill-rule="nonzero"/></g><g clip-path="url(#6f97a70331)"><path fill="#937eb9" d="M 366.746094 163.953125 C 366.625 163.953125 309.8125 164.195312 303 173.296875 C 299.839844 177.664062 303 180.089844 306.042969 182.273438 C 307.136719 183.121094 308.230469 183.851562 309.082031 184.820312 C 310.542969 186.519531 310.785156 188.460938 307.746094 191.128906 C 303.609375 194.769531 286.699219 193.675781 265.898438 192.34375 C 242.296875 190.886719 213.589844 188.945312 193.273438 193.3125 C 175.511719 197.195312 175.757812 202.414062 176 208.113281 C 176.242188 214.910156 176.488281 222.1875 151.792969 228.496094 C 124.664062 235.410156 106.050781 231.527344 85.007812 227.160156 C 70.042969 224.007812 53.863281 220.730469 32.453125 220.851562 L 32.453125 220.003906 C 53.984375 219.882812 70.164062 223.15625 85.25 226.3125 C 106.050781 230.679688 124.664062 234.5625 151.546875 227.648438 C 175.511719 221.460938 175.269531 214.542969 175.148438 208.234375 C 174.90625 202.046875 174.660156 196.46875 193.152344 192.464844 C 213.46875 188.097656 242.296875 189.917969 265.898438 191.492188 C 286.578125 192.828125 303.367188 193.917969 307.257812 190.523438 C 309.8125 188.21875 309.570312 186.761719 308.355469 185.304688 C 307.746094 184.578125 306.652344 183.730469 305.554688 183 C 302.273438 180.574219 298.621094 177.90625 302.273438 172.808594 C 309.328125 163.347656 366.625 163.105469 366.746094 163.105469 Z M 366.746094 163.953125 " fill-opacity="1" fill-rule="nonzero"/></g><g clip-path="url(#4460253de9)"><path fill="#f19502" d="M 31.238281 159.949219 C 31.238281 159.949219 30.386719 133.015625 42.550781 127.195312 C 42.550781 127.195312 48.390625 130.347656 46.808594 143.691406 C 45.347656 157.039062 39.632812 161.648438 33.792969 166.378906 L 33.671875 178.148438 C 33.671875 178.148438 44.496094 178.875 46.199219 190.160156 C 48.023438 201.320312 39.144531 207.386719 34.523438 207.871094 C 34.523438 207.871094 34.765625 218.667969 33.914062 224.613281 C 33.0625 230.679688 26.25 236.382812 17.246094 230.316406 C 8.246094 224.25 16.152344 213.9375 21.75 215.636719 C 27.222656 217.214844 25.277344 223.644531 22.601562 225.949219 C 19.800781 228.253906 17.976562 227.160156 17.976562 227.160156 C 17.976562 227.160156 21.019531 232.136719 27.832031 229.589844 C 34.523438 226.917969 32.210938 208.234375 32.210938 208.234375 C 32.210938 208.234375 12.625 208.84375 11.773438 188.824219 C 10.921875 168.804688 31.238281 159.949219 31.238281 159.949219 Z M 31.84375 185.304688 L 32.210938 206.902344 C 31.117188 207.023438 29.898438 206.902344 28.5625 206.539062 C 16.761719 203.625 13.71875 197.558594 15.789062 187.003906 C 17.855469 176.570312 31.601562 167.59375 31.601562 167.59375 L 31.722656 178.269531 C 31.722656 178.269531 22.84375 180.089844 22.234375 189.429688 C 21.75 198.773438 28.316406 200.226562 28.316406 200.226562 C 28.316406 200.226562 25.03125 197.195312 25.03125 192.222656 C 25.03125 187.367188 27.953125 185.425781 31.84375 185.304688 Z M 34.523438 206.414062 L 33.792969 185.304688 C 35.617188 185.671875 37.320312 186.640625 39.023438 188.21875 C 43.890625 193.191406 41.699219 203.988281 34.523438 206.414062 Z M 33.671875 158.371094 C 33.671875 158.371094 33.914062 138.234375 42.0625 136.292969 C 42.0625 136.292969 51.675781 144.542969 33.671875 158.371094 Z M 33.671875 158.371094 " fill-opacity="1" fill-rule="evenodd"/></g><g clip-path="url(#0d88c5bfe3)"><path fill="#34b493" d="M 91.820312 206.539062 L 119.554688 196.226562 L 119.554688 239.535156 C 119.554688 240.871094 118.339844 243.296875 115.660156 245.117188 C 112.5 247.179688 108.972656 247.058594 107.753906 244.753906 C 106.417969 242.570312 107.875 239.050781 110.917969 236.988281 C 113.472656 235.289062 116.269531 235.046875 117.851562 236.261719 L 117.851562 206.78125 L 93.035156 216 L 93.035156 249.121094 C 92.914062 250.699219 92.183594 252.640625 88.898438 254.824219 C 85.859375 256.886719 82.328125 256.765625 80.992188 254.457031 C 79.773438 252.152344 81.234375 248.757812 84.277344 246.695312 C 86.832031 244.875 89.75 244.753906 91.332031 246.085938 L 91.332031 206.539062 Z M 91.820312 206.539062 " fill-opacity="1" fill-rule="evenodd"/></g><path fill="#34b493" d="M 211.398438 150.488281 L 226.484375 144.90625 L 226.484375 168.441406 C 226.484375 169.171875 225.753906 170.503906 224.417969 171.476562 C 222.714844 172.566406 220.765625 172.445312 220.035156 171.234375 C 219.429688 170.019531 220.160156 168.199219 221.863281 166.988281 C 223.199219 166.136719 224.660156 166.015625 225.632812 166.621094 L 225.632812 150.609375 L 212.128906 155.703125 L 212.128906 173.660156 C 212.007812 174.507812 211.644531 175.601562 209.816406 176.691406 C 208.238281 177.90625 206.289062 177.785156 205.558594 176.570312 C 204.832031 175.359375 205.683594 173.417969 207.261719 172.324219 C 208.722656 171.355469 210.304688 171.234375 211.15625 171.960938 L 211.15625 150.488281 Z M 211.398438 150.488281 " fill-opacity="1" fill-rule="evenodd"/><path fill="#34b493" d="M 327.941406 158.980469 L 335.480469 156.1875 L 335.480469 156.308594 L 335.601562 156.308594 L 335.601562 167.957031 C 335.480469 168.320312 335.238281 169.050781 334.507812 169.535156 C 333.65625 170.019531 332.683594 170.019531 332.320312 169.414062 C 331.953125 168.804688 332.320312 167.835938 333.171875 167.230469 C 333.898438 166.867188 334.628906 166.742188 335.117188 167.109375 L 335.117188 159.101562 L 328.304688 161.527344 L 328.304688 170.625 C 328.304688 170.992188 328.0625 171.597656 327.210938 172.203125 C 326.359375 172.6875 325.386719 172.6875 325.019531 172.082031 C 324.65625 171.476562 325.019531 170.503906 325.871094 169.898438 C 326.601562 169.414062 327.453125 169.414062 327.816406 169.777344 L 327.816406 158.980469 Z M 327.941406 158.980469 " fill-opacity="1" fill-rule="evenodd"/><path fill="#ea75a1" d="M 77.097656 145.269531 L 77.097656 147.574219 C 77.949219 149.152344 79.53125 151.457031 82.328125 153.882812 C 95.953125 165.289062 92.546875 179.117188 85.128906 183.363281 C 85.128906 183.363281 90.480469 176.933594 89.75 170.992188 C 88.898438 165.046875 84.882812 158.617188 77.21875 157.886719 L 77.097656 189.550781 C 77.097656 191.128906 74.058594 194.164062 73.085938 194.648438 C 69.921875 196.347656 66.273438 195.617188 64.933594 193.070312 C 63.597656 190.523438 65.175781 187.246094 68.339844 185.546875 C 70.773438 184.214844 73.570312 184.457031 75.273438 185.792969 L 75.273438 145.269531 Z M 77.097656 145.269531 " fill-opacity="1" fill-rule="nonzero"/><path fill="#ea75a1" d="M 241.445312 170.625 L 241.445312 171.960938 C 241.933594 172.808594 242.90625 174.144531 244.488281 175.480469 C 252.273438 182.03125 250.328125 190.039062 246.070312 192.464844 C 246.070312 192.464844 249.234375 188.824219 248.746094 185.304688 C 248.257812 181.910156 245.949219 178.269531 241.570312 177.90625 L 241.445312 195.980469 C 241.445312 196.832031 239.742188 198.652344 239.257812 198.894531 C 237.433594 199.863281 235.363281 199.5 234.511719 198.042969 C 233.78125 196.589844 234.632812 194.648438 236.460938 193.675781 C 237.917969 192.949219 239.5 193.070312 240.472656 193.796875 L 240.472656 170.625 Z M 241.445312 170.625 " fill-opacity="1" fill-rule="nonzero"/><path fill="#ea75a1" d="M 318.816406 148.546875 L 318.816406 149.273438 C 319.058594 149.636719 319.546875 150.367188 320.277344 151.09375 C 324.289062 154.492188 323.316406 158.496094 321.128906 159.828125 C 321.128906 159.828125 322.707031 157.886719 322.464844 156.1875 C 322.222656 154.371094 321.128906 152.550781 318.816406 152.308594 L 318.816406 161.648438 C 318.816406 162.132812 317.84375 162.984375 317.597656 163.105469 C 316.625 163.589844 315.53125 163.46875 315.167969 162.617188 C 314.800781 161.890625 315.289062 160.921875 316.140625 160.433594 C 316.871094 160.070312 317.722656 160.070312 318.207031 160.558594 L 318.207031 148.546875 Z M 318.816406 148.546875 " fill-opacity="1" fill-rule="nonzero"/><path fill="#f19502" d="M 139.871094 170.746094 L 168.09375 162.011719 L 168.09375 186.882812 C 168.09375 187.734375 167.363281 189.066406 165.902344 190.039062 C 164.078125 191.007812 162.011719 190.886719 161.28125 189.550781 C 160.550781 188.21875 161.402344 186.15625 163.226562 185.183594 C 164.566406 184.214844 166.269531 184.214844 167.121094 184.941406 L 167.121094 168.078125 L 154.46875 171.960938 L 154.46875 191.128906 C 154.46875 191.855469 153.738281 193.3125 152.15625 194.164062 C 150.332031 195.253906 148.386719 195.011719 147.65625 193.675781 C 146.925781 192.34375 147.65625 190.402344 149.480469 189.308594 C 150.941406 188.460938 152.519531 188.460938 153.496094 189.1875 L 153.496094 172.324219 L 140.601562 176.207031 L 140.601562 195.253906 C 140.476562 196.105469 139.992188 197.316406 138.167969 198.410156 C 136.464844 199.5 134.394531 199.257812 133.664062 197.921875 C 132.9375 196.589844 133.910156 194.527344 135.492188 193.554688 C 137.195312 192.585938 138.652344 192.707031 139.625 193.433594 L 139.625 170.746094 Z M 139.871094 170.746094 " fill-opacity="1" fill-rule="evenodd"/><path fill="#f19502" d="M 267.113281 168.320312 L 286.699219 162.253906 L 286.699219 179.484375 C 286.699219 180.089844 286.214844 180.9375 285.117188 181.667969 C 283.902344 182.394531 282.5625 182.273438 281.957031 181.300781 C 281.46875 180.332031 282.078125 178.996094 283.292969 178.269531 C 284.265625 177.664062 285.363281 177.664062 286.09375 178.148438 L 286.09375 166.5 L 277.210938 169.171875 L 277.210938 182.394531 C 277.210938 183 276.726562 183.851562 275.628906 184.578125 C 274.414062 185.304688 273.074219 185.183594 272.589844 184.214844 C 271.980469 183.242188 272.589844 181.910156 273.804688 181.179688 C 274.777344 180.574219 275.875 180.574219 276.605469 181.058594 L 276.605469 169.414062 L 267.722656 172.203125 L 267.722656 185.304688 C 267.601562 185.914062 267.359375 186.640625 266.019531 187.488281 C 264.804688 188.21875 263.464844 187.976562 262.855469 187.125 C 262.371094 186.15625 263.101562 184.820312 264.195312 184.09375 C 265.289062 183.363281 266.386719 183.484375 266.992188 184.09375 L 266.992188 168.320312 Z M 267.113281 168.320312 " fill-opacity="1" fill-rule="evenodd"/></svg>